<svg xmlns="http://www.w3.org/2000/svg" width="64" height="64" fill="none"><path fill-rule="evenodd" clip-rule="evenodd" d="M52 32c0 .295-.15.577-.418.786a1.658 1.658 0 01-1.01.325H16.879l8.991 6.99c.268.209.42.492.42.787 0 .295-.151.578-.42.786a1.66 1.66 0 01-1.01.326 1.66 1.66 0 01-1.012-.326L12.42 32.787a1.139 1.139 0 01-.31-.361A.902.902 0 0112 32c0-.146.037-.29.11-.426a1.12 1.12 0 01.31-.36l11.428-8.888a1.66 1.66 0 011.01-.326c.38 0 .744.117 1.012.326.268.208.42.491.42.786 0 .295-.151.578-.42.787l-8.99 6.99h33.69c.38 0 .743.117 1.01.325.268.209.419.491.419.786z" fill="#1D1F1D"/></svg>