<?xml version="1.0" encoding="UTF-8"?> <svg xmlns="http://www.w3.org/2000/svg" width="64" height="64" viewBox="0 0 64 64" fill="none"> <path fill-rule="evenodd" clip-rule="evenodd" d="M52 32C52 32.2946 51.8495 32.5772 51.5816 32.7856C51.3137 32.9939 50.9504 33.111 50.5715 33.111L16.8794 33.111L25.8702 40.1011C26.1385 40.3097 26.2892 40.5926 26.2892 40.8876C26.2892 41.1827 26.1385 41.4656 25.8702 41.6742C25.602 41.8828 25.2382 42 24.8589 42C24.4795 42 24.1157 41.8828 23.8475 41.6742L12.4197 32.7866C12.2866 32.6834 12.1811 32.5608 12.1091 32.4258C12.0371 32.2908 12 32.1461 12 32C12 31.8539 12.0371 31.7092 12.1091 31.5742C12.1811 31.4392 12.2866 31.3166 12.4197 31.2134L23.8475 22.3258C24.1157 22.1172 24.4795 22 24.8589 22C25.2382 22 25.602 22.1172 25.8702 22.3258C26.1385 22.5344 26.2892 22.8173 26.2892 23.1124C26.2892 23.4074 26.1385 23.6903 25.8702 23.8989L16.8794 30.889L50.5715 30.889C50.9504 30.889 51.3137 31.0061 51.5816 31.2144C51.8495 31.4228 52 31.7054 52 32Z" fill="#1D1F1D"></path> </svg> 